HIERARCHY
ROOT Hips
{
    OFFSET 0.000000 0.000000 0.000000
    CHANNELS 6 Xposition Yposition Zposition Zrotation Xrotation Yrotation
    JOINT Spine
    {
        OFFSET -0.000000 14.517291 0.000000
        CHANNELS 3 Zrotation Xrotation Yrotation
        JOINT Spine1
        {
            OFFSET -0.000000 37.558300 0.000000
            CHANNELS 3 Zrotation Xrotation Yrotation
            JOINT Neck
            {
                OFFSET -0.000000 37.404057 3.400369
                CHANNELS 3 Zrotation Xrotation Yrotation
                JOINT Head
                {
                    OFFSET -0.000000 24.785618 -3.540803
                    CHANNELS 3 Zrotation Xrotation Yrotation
                    End Site
                    {
                        OFFSET -0.000000 35.408028 0.000000
                    }
                }
            }
            JOINT LeftShoulder
            {
                OFFSET 6.992933 33.973492 -0.192664
                CHANNELS 3 Zrotation Xrotation Yrotation
                JOINT LeftArm
                {
                    OFFSET 21.527611 0.000000 0.000000
                    CHANNELS 3 Zrotation Xrotation Yrotation
                    JOINT LeftForeArm
                    {
                        OFFSET 56.353916 0.000000 0.000000
                        CHANNELS 3 Zrotation Xrotation Yrotation
                        JOINT LeftHand
                        {
                            OFFSET 47.774071 0.000000 0.000000
                            CHANNELS 3 Zrotation Xrotation Yrotation
                            End Site
                            {
                                OFFSET 26.556021 0.000000 0.000000
                            }
                        }
                    }
                }
            }
            JOINT RightShoulder
            {
                OFFSET -7.065357 33.973492 -0.192664
                CHANNELS 3 Zrotation Xrotation Yrotation
                JOINT RightArm
                {
                    OFFSET -21.527611 0.000000 0.000000
                    CHANNELS 3 Zrotation Xrotation Yrotation
                    JOINT RightForeArm
                    {
                        OFFSET -56.353916 0.000000 0.000000
                        CHANNELS 3 Zrotation Xrotation Yrotation
                        JOINT RightHand
                        {
                            OFFSET -47.774071 0.000000 0.000000
                            CHANNELS 3 Zrotation Xrotation Yrotation
                            End Site
                            {
                                OFFSET -26.556021 0.000000 0.000000
                            }
                        }
                    }
                }
            }
        }
    }
    JOINT LeftUpLeg
    {
        OFFSET 17.704014 0.000000 0.000000
        CHANNELS 3 Zrotation Xrotation Yrotation
        JOINT LeftLeg
        {
            OFFSET -0.000000 -81.181816 0.000000
            CHANNELS 3 Zrotation Xrotation Yrotation
            JOINT LeftFoot
            {
                OFFSET -0.000000 -62.821102 0.000000
                CHANNELS 3 Zrotation Xrotation Yrotation
                JOINT LeftToeBase
                {
                    OFFSET -0.000000 -11.507608 26.556021
                    CHANNELS 3 Zrotation Xrotation Yrotation
                    End Site
                    {
                        OFFSET -0.000000 0.000000 7.081605
                    }
                }
            }
        }
    }
    JOINT RightUpLeg
    {
        OFFSET -17.704014 0.000000 0.000000
        CHANNELS 3 Zrotation Xrotation Yrotation
        JOINT RightLeg
        {
            OFFSET -0.000000 -81.181816 0.000000
            CHANNELS 3 Zrotation Xrotation Yrotation
            JOINT RightFoot
            {
                OFFSET -0.000000 -62.821102 0.000000
                CHANNELS 3 Zrotation Xrotation Yrotation
                JOINT RightToeBase
                {
                    OFFSET -0.000000 -11.507608 26.556021
                    CHANNELS 3 Zrotation Xrotation Yrotation
                    End Site
                    {
                        OFFSET -0.000000 0.000000 7.081605
                    }
                }
            }
        }
    }
}
MOTION
Frames:    12
Frame Time:    0.008333
27.186989    155.847794    -35.726608    1.131127    -1.481036    -45.571804    1.320758    -0.498575    2.379675    5.770955    -0.586940    0.821155    12.813812    1.178583    14.377251    -10.874074    8.881330    12.508436    16.441526    -6.455447    -15.294642    5.772645    -12.970426    -21.441465    -12.759275    -0.830647    -58.599319    -15.618498    -2.037678    -41.704826    -7.560757    4.328646    0.096643    35.272354    9.052044    78.738586    5.758653    -1.359461    102.260735    9.756106    -6.459304    23.634720    17.125624    -19.592464    5.557020    -12.260468    19.822655    -3.608230    -7.933724    0.089003    37.936901    0.000000    0.000000    0.000000    -17.190845    0.063822    -6.172378    7.510128    29.650110    -2.332804    5.174840    -21.847010    -16.351549    0.000000    0.000000    0.000000    
27.192062    155.843491    -35.724113    1.126348    -1.492418    -45.593182    1.333495    -0.482475    2.385133    5.746380    -0.581022    0.822632    12.807103    1.179868    14.367749    -10.863187    8.854149    12.497642    16.431290    -6.444472    -15.295815    5.747534    -12.977887    -21.459480    -12.794223    -0.832203    -58.528862    -15.631123    -2.042082    -41.716351    -7.560665    4.325614    0.084189    35.271217    9.053166    78.727921    5.763105    -1.360399    102.268013    9.761436    -6.465575    23.638332    17.127304    -19.576380    5.546793    -12.273927    19.825880    -3.605625    -7.934929    0.067771    37.957596    0.000000    0.000000    0.000000    -17.203001    0.063612    -6.157730    7.517145    29.655203    -2.343956    5.172204    -21.850996    -16.324263    0.000000    0.000000    0.000000    
27.199503    155.839340    -35.723133    1.128032    -1.497897    -45.611736    1.341913    -0.470288    2.379399    5.727916    -0.584039    0.820802    12.795434    1.188443    14.366051    -10.844189    8.817003    12.496130    16.429047    -6.434736    -15.281164    5.704782    -13.021661    -21.487282    -12.851796    -0.771821    -58.433689    -15.583191    -2.013186    -41.754078    -7.566917    4.329875    0.096358    35.271339    9.046535    78.707504    5.768920    -1.359320    102.283142    9.762176    -6.473908    23.634716    17.126398    -19.571548    5.507710    -12.293464    19.821896    -3.578440    -7.929933    0.057319    37.986744    0.000000    0.000000    0.000000    -17.213528    0.053236    -6.143498    7.518385    29.666620    -2.323962    5.167357    -21.864063    -16.334417    0.000000    0.000000    0.000000    
27.204418    155.837143    -35.721218    1.129092    -1.505790    -45.634655    1.347738    -0.463783    2.380867    5.707462    -0.578282    0.820946    12.787131    1.204080    14.352796    -10.830716    8.771191    12.481664    16.422821    -6.431108    -15.289049    5.666199    -13.034393    -21.500048    -12.879166    -0.741284    -58.337109    -15.547873    -1.994169    -41.775513    -7.562301    4.333431    0.085865    35.257309    9.053257    78.704742    5.760852    -1.370372    102.282852    9.748895    -6.477282    23.636528    17.125597    -19.558558    5.499576    -12.302648    19.817080    -3.565008    -7.929922    0.053330    37.998943    0.000000    0.000000    0.000000    -17.225832    0.047937    -6.112627    7.530932    29.669992    -2.306830    5.161602    -21.872978    -16.365580    0.000000    0.000000    0.000000    
27.209801    155.836197    -35.718315    1.129680    -1.512002    -45.658615    1.356131    -0.454308    2.378674    5.682902    -0.580976    0.820168    12.790678    1.212174    14.348491    -10.826656    8.752180    12.476025    16.424036    -6.415466    -15.292969    5.620597    -13.025817    -21.503105    -12.869543    -0.743751    -58.256641    -15.532914    -1.979598    -41.810047    -7.553944    4.343463    0.084919    35.181351    9.084746    78.704514    5.715957    -1.473565    102.295448    9.773208    -6.518609    23.659275    17.120399    -19.545475    5.500647    -12.297702    19.812883    -3.559366    -7.930934    0.041507    38.013069    0.000000    0.000000    0.000000    -17.236738    0.043194    -6.083202    7.544968    29.664980    -2.317817    5.148413    -21.868368    -16.354389    0.000000    0.000000    0.000000    
27.209055    155.833374    -35.716568    1.127572    -1.518887    -45.681023    1.356037    -0.447192    2.370272    5.672729    -0.577032    0.817139    12.782975    1.216531    14.344847    -10.810096    8.727048    12.472434    16.418293    -6.401904    -15.290100    5.566697    -12.993593    -21.505653    -12.822186    -0.779637    -58.186165    -15.559837    -1.970072    -41.795673    -7.553311    4.348010    0.083116    35.181477    9.087645    78.698792    5.713701    -1.464718    102.290154    9.764521    -6.508332    23.657518    17.121141    -19.531347    5.512294    -12.299559    19.816490    -3.549044    -7.914027    0.034119    38.006187    0.000000    0.000000    0.000000    -17.242708    0.040468    -6.084800    7.536839    29.671333    -2.306686    5.144362    -21.876013    -16.346025    0.000000    0.000000    0.000000    
27.208788    155.830460    -35.715729    1.131816    -1.516110    -45.703602    1.355698    -0.461800    2.366348    5.665560    -0.557688    0.814863    12.773496    1.216924    14.339686    -10.793368    8.702871    12.467164    16.407557    -6.385565    -15.283237    5.503929    -12.950999    -21.522169    -12.743546    -0.863281    -58.119473    -15.602180    -1.983041    -41.795311    -7.550346    4.340644    0.074360    35.171101    9.102261    78.692566    5.709685    -1.472715    102.285355    9.766989    -6.509904    23.661522    17.125086    -19.527573    5.528549    -12.294775    19.817190    -3.537038    -7.909176    0.028402    37.991398    0.000000    0.000000    0.000000    -17.248655    0.027802    -6.067966    7.539912    29.675018    -2.312494    5.155177    -21.884779    -16.310068    0.000000    0.000000    0.000000    
27.209217    155.829773    -35.714020    1.130379    -1.518779    -45.727814    1.365039    -0.461307    2.358704    5.641097    -0.549408    0.811710    12.796959    1.217676    14.346028    -10.813765    8.699813    12.468987    16.400669    -6.354219    -15.274476    5.442782    -12.914387    -21.533237    -12.667732    -0.951425    -58.042645    -15.592281    -2.013515    -41.842545    -7.538769    4.349805    0.074104    35.173126    9.101632    78.691528    5.713171    -1.460871    102.279327    9.762950    -6.503890    23.646294    17.128660    -19.516251    5.541803    -12.294752    19.816509    -3.517394    -7.918861    0.018695    37.994190    0.000000    0.000000    0.000000    -17.258148    0.019567    -6.048601    7.554692    29.678696    -2.301142    5.150122    -21.883432    -16.313673    0.000000    0.000000    0.000000    
27.207378    155.828262    -35.717098    1.133740    -1.511559    -45.745945    1.359761    -0.462028    2.348625    5.645479    -0.557987    0.808837    12.784791    1.210169    14.337884    -10.794314    8.701489    12.462719    16.370331    -6.332043    -15.270266    5.364438    -12.819410    -21.541328    -12.509456    -1.120082    -57.988285    -15.678154    -2.046234    -41.876003    -7.541330    4.347090    0.059740    35.182575    9.115899    78.692230    5.720746    -1.438039    102.260712    9.772684    -6.485890    23.649862    17.136158    -19.524315    5.573456    -12.280697    19.835178    -3.521106    -7.911723    0.016751    37.976570    0.000000    0.000000    0.000000    -17.255434    0.002275    -6.059800    7.541759    29.687368    -2.273956    5.148323    -21.886728    -16.320391    0.000000    0.000000    0.000000    
27.200771    155.827026    -35.714306    1.129491    -1.515300    -45.766941    1.361450    -0.472116    2.339331    5.626623    -0.536684    0.804584    12.825654    1.225615    14.346837    -10.838888    8.688004    12.463966    16.347130    -6.309724    -15.283062    5.290480    -12.799193    -21.541019    -12.435535    -1.249730    -57.921047    -15.731678    -2.105184    -41.866924    -7.530529    4.352276    0.047537    35.189377    9.118808    78.698715    5.737864    -1.414148    102.252075    9.751817    -6.488514    23.625103    17.138264    -19.510975    5.601733    -12.268507    19.839142    -3.527970    -7.904420    0.017873    37.975018    0.000000    0.000000    0.000000    -17.259844    0.002515    -6.046259    7.553741    29.687944    -2.265983    5.119906    -21.886003    -16.322454    0.000000    0.000000    0.000000    
27.193451    155.824036    -35.714859    1.126759    -1.514954    -45.787849    1.358749    -0.467839    2.326162    5.617333    -0.541215    0.800297    12.827551    1.214960    14.349627    -10.825572    8.706101    12.467978    16.313200    -6.271100    -15.265416    5.212189    -12.820623    -21.572403    -12.392062    -1.362185    -57.847137    -15.752464    -2.176777    -41.853092    -7.526660    4.350277    0.047004    35.188709    9.141933    78.692978    5.739457    -1.421555    102.253372    9.766210    -6.495319    23.622604    17.144468    -19.501335    5.622847    -12.257010    19.848389    -3.545321    -7.906807    0.000057    37.975239    0.000000    0.000000    0.000000    -17.258577    -0.005069    -6.027079    7.559213    29.694962    -2.277173    5.123326    -21.898157    -16.314661    0.000000    0.000000    0.000000    
27.189409    155.823013    -35.711544    1.127144    -1.519095    -45.804276    1.351470    -0.467154    2.309215    5.605738    -0.537283    0.794393    12.843393    1.223036    14.353228    -10.839857    8.691802    12.468178    16.276508    -6.225556    -15.252229    5.108931    -12.739588    -21.603306    -12.247901    -1.647911    -57.795410    -15.592157    -2.425445    -41.926125    -7.522099    4.351859    0.053647    35.190849    9.148680    78.678146    5.729747    -1.415735    102.262482    9.757025    -6.481280    23.614473    17.146173    -19.493422    5.616226    -12.260714    19.853821    -3.548036    -7.916074    -0.024238    37.993530    0.000000    0.000000    0.000000    -17.265129    -0.008605    -6.022796    7.557947    29.698229    -2.271134    5.126886    -21.900089    -16.300623    0.000000    0.000000    0.000000    
